<svg width="213" height="82" viewBox="0 0 213 82" fill="none" xmlns="http://www.w3.org/2000/svg">
<path d="M94.8603 32.7191H104.893V35.9459H91.1189V14.9313H104.343V18.1465H94.8603V23.5823H103.006V26.7976H94.8603V32.7191Z" fill="#1A6DCB"/>
<path d="M119.499 24.6926C120.96 26.8438 122.151 28.7406 123.072 30.4176H123.162C123.038 27.6881 122.982 25.6988 122.982 24.4497V14.9313H126.712V35.9459H122.791L116.14 26.2655C114.971 24.5885 113.758 22.6571 112.511 20.4365H112.421C112.545 23.0156 112.612 25.0049 112.612 26.4275V35.9459H108.871V14.9313H112.792L119.499 24.6926Z" fill="#1A6DCB"/>
<path d="M139.712 27.9193V24.6925H148.026V35.2982C147.723 35.4138 147.329 35.5295 146.857 35.6567C146.386 35.7839 145.858 35.8996 145.273 35.9921C144.689 36.0962 144.082 36.1771 143.464 36.235C142.846 36.2928 142.229 36.3275 141.622 36.3275C139.79 36.3275 138.195 36.073 136.824 35.5642C135.454 35.0553 134.319 34.3382 133.409 33.4245C132.499 32.4993 131.813 31.4121 131.364 30.1283C130.915 28.8561 130.69 27.4567 130.69 25.9185C130.69 24.8313 130.813 23.7904 131.049 22.7958C131.285 21.8127 131.634 20.8874 132.105 20.0547C132.566 19.2104 133.128 18.4471 133.791 17.7647C134.454 17.0824 135.206 16.5041 136.06 16.0183C136.914 15.5326 137.847 15.1625 138.847 14.908C139.858 14.6536 140.948 14.5264 142.105 14.5264C143.139 14.5264 144.105 14.5958 145.037 14.7461C145.959 14.8965 146.723 15.0815 147.307 15.3013V18.5743C146.52 18.3083 145.711 18.1117 144.903 17.9729C144.094 17.8341 143.273 17.7647 142.453 17.7647C141.341 17.7647 140.307 17.9382 139.341 18.2736C138.375 18.6206 137.543 19.1179 136.836 19.7887C136.128 20.4479 135.577 21.2691 135.161 22.2406C134.757 23.2121 134.555 24.3455 134.555 25.6178C134.566 28.1044 135.195 29.9549 136.442 31.2039C137.701 32.4415 139.476 33.066 141.768 33.066C142.195 33.066 142.633 33.0429 143.094 32.9966C143.554 32.9503 143.959 32.8925 144.296 32.8116V27.9193H139.712Z" fill="#1A6DCB"/>
<path d="M156.351 14.9313V32.7191H165.901V35.9459H152.61V14.9313H156.351Z" fill="#1A6DCB"/>
<path d="M173.148 14.9313H169.407V35.9459H173.148V14.9313Z" fill="#1A6DCB"/>
<path d="M188.057 29.9086C188.057 29.3766 187.934 28.9486 187.675 28.6132C187.417 28.2894 187.08 28.0118 186.642 27.8037C186.204 27.5955 185.709 27.4336 185.17 27.2948C184.631 27.1675 184.058 27.0403 183.462 26.9131C182.664 26.7396 181.912 26.5314 181.181 26.277C180.462 26.0341 179.822 25.6872 179.271 25.2477C178.721 24.8082 178.283 24.2646 177.957 23.5938C177.631 22.923 177.462 22.0903 177.462 21.0841C177.462 19.9738 177.653 19.0022 178.035 18.1811C178.406 17.3599 178.923 16.6776 179.563 16.134C180.204 15.602 180.968 15.1856 181.844 14.9312C182.709 14.6652 183.698 14.5264 184.777 14.5264C185.866 14.5264 186.956 14.6305 188.057 14.8502C189.158 15.0699 190.102 15.3591 190.9 15.7061V19.0022C189.844 18.5743 188.833 18.262 187.855 18.0654C186.878 17.8688 185.968 17.7763 185.114 17.7763C183.889 17.7763 182.934 18.0076 182.271 18.4702C181.608 18.9329 181.271 19.6268 181.271 20.5405C181.271 21.0725 181.384 21.512 181.597 21.8589C181.811 22.2059 182.114 22.495 182.485 22.7148C182.855 22.9345 183.294 23.1196 183.777 23.2584C184.271 23.3972 184.788 23.5244 185.338 23.6285C186.204 23.8135 187.035 24.0333 187.821 24.2877C188.608 24.5306 189.316 24.8776 189.922 25.3171C190.529 25.7565 191.012 26.3233 191.372 27.0288C191.731 27.7343 191.911 28.6479 191.911 29.7467C191.911 30.8801 191.709 31.8516 191.304 32.6843C190.889 33.5055 190.316 34.1879 189.574 34.7314C188.833 35.2635 187.923 35.6683 186.855 35.9343C185.788 36.2003 184.619 36.3275 183.35 36.3275C182.237 36.3275 181.148 36.2118 180.08 35.9921C179.013 35.7723 178.114 35.4485 177.406 35.0437V31.7938C178.406 32.2448 179.395 32.5687 180.35 32.7769C181.305 32.985 182.294 33.0776 183.316 33.0776C183.9 33.0776 184.485 33.0313 185.046 32.9272C185.619 32.8231 186.125 32.6612 186.586 32.4183C187.035 32.1754 187.406 31.8516 187.675 31.4352C187.923 31.0305 188.057 30.5216 188.057 29.9086Z" fill="#1A6DCB"/>
<path d="M199.798 23.5823H209.259V14.9313H213V35.9459H209.259V26.7976H199.798V35.9459H196.057V14.9313H199.798V23.5823Z" fill="#1A6DCB"/>
<path d="M94.8603 45.1631H91.1189V66.1778H94.8603V45.1631Z" fill="#F60000"/>
<path d="M109.781 60.141C109.781 59.609 109.657 59.1811 109.399 58.8457C109.14 58.5218 108.803 58.2443 108.365 58.0361C107.927 57.8279 107.433 57.666 106.893 57.5272C106.354 57.4 105.781 57.2727 105.174 57.1455C104.376 56.972 103.624 56.7639 102.893 56.5094C102.174 56.2665 101.534 55.9196 100.983 55.4801C100.433 55.0406 99.9947 54.497 99.6689 53.8262C99.343 53.1554 99.1745 52.3227 99.1745 51.3165C99.1745 50.2062 99.3655 49.2347 99.7475 48.4135C100.118 47.5924 100.635 46.91 101.276 46.3664C101.916 45.8344 102.68 45.418 103.556 45.1636C104.421 44.8976 105.41 44.7588 106.489 44.7588C107.567 44.7588 108.668 44.8629 109.769 45.0826C110.871 45.3024 111.814 45.5915 112.612 45.9385V49.2347C111.556 48.8067 110.545 48.4945 109.567 48.2979C108.59 48.1012 107.68 48.0087 106.826 48.0087C105.601 48.0087 104.646 48.24 103.983 48.7027C103.32 49.1653 102.983 49.8592 102.983 50.7729C102.983 51.3049 103.096 51.7444 103.309 52.0914C103.523 52.4383 103.826 52.7275 104.197 52.9472C104.567 53.167 105.006 53.352 105.489 53.4908C105.983 53.6296 106.5 53.7568 107.05 53.8609C107.916 54.0459 108.747 54.2657 109.533 54.5201C110.32 54.763 111.028 55.11 111.635 55.5495C112.241 55.989 112.724 56.5557 113.084 57.2612C113.443 57.9667 113.623 58.8804 113.623 59.9791C113.623 61.1125 113.421 62.084 113.016 62.9167C112.601 63.7379 112.028 64.4203 111.286 64.9639C110.545 65.4959 109.635 65.9007 108.567 66.1667C107.5 66.4327 106.331 66.5599 105.062 66.5599C103.95 66.5599 102.86 66.4443 101.792 66.2245C100.725 66.0048 99.8262 65.6809 99.1183 65.2761V62.0262C100.118 62.4773 101.107 62.8011 102.062 63.0093C103.017 63.2175 104.006 63.31 105.028 63.31C105.612 63.31 106.197 63.2637 106.758 63.1596C107.331 63.0555 107.837 62.8936 108.298 62.6507C108.747 62.4079 109.118 62.084 109.387 61.6677C109.635 61.2629 109.781 60.754 109.781 60.141Z" fill="#F60000"/>
<path d="M121.51 45.1631V62.951H131.061V66.1778H117.769V45.1631H121.51Z" fill="#F60000"/>
<path d="M138.319 62.951H148.352V66.1778H134.577V45.1631H147.801V48.3784H138.319V53.8142H146.464V57.0294H138.319V62.951Z" fill="#F60000"/>
<path fill-rule="evenodd" clip-rule="evenodd" d="M31.7623 11.0681V19.8927L23.7964 12.8261L31.7623 11.0681Z" fill="#1A6DCB"/>
<path fill-rule="evenodd" clip-rule="evenodd" d="M31.7399 50.2294V43.5098L27.0098 47.6734L31.7399 50.2294Z" fill="#1A6DCB"/>
<path fill-rule="evenodd" clip-rule="evenodd" d="M16.707 18.9907L24.3471 25.745H10.3253L16.707 18.9907Z" fill="#1A6DCB"/>
<path fill-rule="evenodd" clip-rule="evenodd" d="M17.7856 43.4635L24.7852 37.3684L12.8533 37.4609L17.7856 43.4635Z" fill="#1A6DCB"/>
<path fill-rule="evenodd" clip-rule="evenodd" d="M44.683 11.0681V19.8927L52.6377 12.8261L44.683 11.0681Z" fill="#1A6DCB"/>
<path fill-rule="evenodd" clip-rule="evenodd" d="M44.6943 50.2294V43.5098L49.4244 47.6734L44.6943 50.2294Z" fill="#1A6DCB"/>
<path fill-rule="evenodd" clip-rule="evenodd" d="M59.7385 18.9907L52.0984 25.745H66.1089L59.7385 18.9907Z" fill="#1A6DCB"/>
<path fill-rule="evenodd" clip-rule="evenodd" d="M58.6486 43.4635L51.6602 37.3684L63.5921 37.4609L58.6486 43.4635Z" fill="#1A6DCB"/>
<path fill-rule="evenodd" clip-rule="evenodd" d="M41.245 61.4249C52.559 61.9569 62.39 65.4266 68.3447 70.4461C67.5021 70.8046 66.8616 71.2788 66.2886 71.7067C65.3449 72.4007 64.637 72.9095 63.0865 72.9095C61.5473 72.9095 60.8507 72.4007 59.9069 71.7067C58.7834 70.874 57.3902 69.8447 54.7836 69.8447C52.177 69.8447 50.7838 70.874 49.6603 71.7067C48.7165 72.4007 48.0312 72.9095 46.4807 72.9095C44.9414 72.9095 44.2561 72.4007 43.3123 71.7067C42.1888 70.874 40.7956 69.8447 38.189 69.8447C35.5824 69.8447 34.1892 70.874 33.0657 71.7067C32.1219 72.4007 31.4253 72.9095 29.8973 72.9095C28.3693 72.9095 27.6839 72.4007 26.7289 71.7067C25.6054 70.874 24.2122 69.8447 21.6168 69.8447C19.0102 69.8447 17.617 70.874 16.4935 71.7067C15.5497 72.4122 14.8644 72.9095 13.3139 72.9095C11.7747 72.9095 11.0893 72.4007 10.1343 71.7067C9.55005 71.2672 8.88717 70.7699 7.99957 70.4114C12.9094 66.2478 20.4259 63.0904 29.2681 61.9685L31.0883 61.7372C31.695 61.6562 32.3241 61.5984 32.9421 61.5637L35.088 61.4249H35.1667V36.1194L23.3471 46.4706L20.1787 45.6957L33.1219 34.3614H11.314L9.1456 28.7868H32.6949L18.7743 16.5967L20.6394 14.6768L35.1667 27.399V10.2935H41.2113V27.399L55.7386 14.6768L57.6037 16.5967L43.6831 28.7868H67.2324L65.064 34.3614H43.2561L56.1993 45.6957L53.0309 46.4706L41.2113 36.1194V61.4249H41.245Z" fill="#F60000"/>
<path fill-rule="evenodd" clip-rule="evenodd" d="M38.1553 0H76.3218V75.1647V81.1326C75.7263 80.8203 75.2095 80.4502 74.7713 80.1379C73.8163 79.4324 73.0748 78.9351 71.5243 78.9351H71.5131C69.9626 78.9351 69.2211 79.444 68.2661 80.1379C67.1313 80.9707 65.6819 82 63.0416 82C60.4126 82 58.9969 80.9707 57.8621 80.1379C56.9071 79.4324 56.2105 78.9351 54.6488 78.9351C53.0871 78.9351 52.4017 79.444 51.4355 80.1379C50.3007 80.9707 48.8963 82 46.256 82C43.6269 82 42.2113 80.9707 41.0765 80.1379C40.1776 79.4787 39.5035 78.993 38.1216 78.9351V75.1069C40.5934 75.1763 41.9416 76.1594 43.0427 76.9574C43.9977 77.6513 44.6943 78.1602 46.256 78.1602C47.8177 78.1602 48.5143 77.6513 49.4693 76.9574C50.6041 76.1247 52.0197 75.0953 54.6488 75.0953C57.2891 75.0953 58.6935 76.1247 59.8283 76.9574C60.7833 77.6513 61.4911 78.1602 63.0528 78.1602C64.6146 78.1602 65.3224 77.6513 66.2886 76.9574C67.4234 76.1362 68.8278 75.1069 71.5019 75.0953H71.5131C71.94 75.0953 72.3333 75.1185 72.6928 75.1763V3.71255H38.1328V0H38.1553ZM29.5265 81.9884C26.8525 81.9884 25.4818 80.9591 24.347 80.1264C23.392 79.4209 22.6954 78.9236 21.145 78.9236C19.5832 78.9236 18.8866 79.4324 17.9316 80.1264C16.8081 80.9591 15.3925 81.9884 12.7634 81.9884C10.1231 81.9884 8.71864 80.9591 7.58387 80.1264C6.62886 79.4209 5.93229 78.9236 4.37057 78.9236C2.80886 78.9236 2.12349 79.4324 1.16849 80.1264C0.808956 80.3924 0.438179 80.6815 0 80.9475V73.8578V0H38.1665V3.71255H3.60654V75.1185C3.85372 75.0954 4.10092 75.0838 4.37057 75.0838C7.01088 75.0838 8.41529 76.1131 9.55006 76.9458C10.5163 77.6513 11.2017 78.1487 12.7634 78.1487C14.3251 78.1487 15.0217 77.6398 15.9767 76.9458C17.1115 76.1131 18.5159 75.0838 21.1562 75.0838C23.7853 75.0838 25.2009 76.1131 26.3244 76.9458C27.2794 77.6398 27.976 78.1487 29.5265 78.1487C31.077 78.1487 31.7736 77.6398 32.7399 76.9458C33.8746 76.1131 35.279 75.0838 37.9081 75.0838C37.998 75.0838 38.0766 75.0838 38.1665 75.0838V78.912C38.0879 78.912 37.998 78.912 37.9081 78.912C36.3576 78.912 35.6611 79.4209 34.706 80.1148C33.56 80.9591 32.2005 81.9884 29.5265 81.9884Z" fill="#1A6DCB"/>
</svg>
